<?xml version="1.0" standalone="no"?>
<!DOCTYPE svg PUBLIC "-//W3C//DTD SVG 20010904//EN"
 "http://www.w3.org/TR/2001/REC-SVG-20010904/DTD/svg10.dtd">
<svg version="1.0" xmlns="http://www.w3.org/2000/svg"
 width="626.000000pt" height="626.000000pt" viewBox="0 0 626.000000 626.000000"
 preserveAspectRatio="xMidYMid meet">

<g transform="translate(0.000000,626.000000) scale(0.100000,-0.100000)"
fill="#000000" stroke="none">
<path d="M2158 5385 c-32 -169 -41 -260 -40 -445 0 -277 43 -507 132 -710 23
-52 44 -101 47 -109 8 -18 9 -19 -160 101 -76 54 -142 96 -147 93 -5 -3 -12 0
-16 6 -4 8 -3 9 4 5 31 -19 7 4 -35 35 -42 29 -93 46 -93 29 0 -7 51 -97 74
-132 10 -16 16 -28 13 -28 -7 0 -59 84 -101 164 -93 178 18 -154 124 -369 88
-181 193 -340 307 -466 77 -84 80 -86 158 -109 44 -13 109 -34 145 -46 60 -21
62 -23 29 -23 l-37 -1 -12 -102 c-6 -57 -12 -109 -13 -117 -2 -17 -34 -23 -56
-10 -9 5 -45 22 -81 38 -162 72 -395 225 -555 366 l-80 70 35 -49 c162 -227
432 -472 669 -607 64 -36 82 -42 125 -40 28 1 181 8 340 17 159 8 291 12 294
9 3 -3 -3 -12 -14 -20 -10 -8 -14 -15 -7 -15 8 0 10 -18 8 -57 -5 -72 12 -156
28 -147 9 5 9 4 1 -5 -6 -7 -56 -22 -110 -33 -80 -17 -134 -22 -284 -22 -104
0 -220 5 -265 13 -205 32 -433 94 -594 161 -39 16 -71 27 -71 24 0 -6 152
-103 230 -146 168 -93 402 -180 587 -217 l101 -21 308 120 c169 67 315 119
323 118 9 -2 20 -13 26 -26 5 -12 15 -22 21 -22 16 0 59 -49 59 -68 0 -9 -4
-20 -9 -24 -6 -4 -5 -17 2 -32 8 -17 8 -26 1 -26 -6 0 -8 -4 -5 -8 8 -13 -148
-80 -259 -112 -213 -61 -418 -86 -638 -77 -76 3 -137 4 -135 2 6 -6 202 -53
273 -65 39 -7 143 -15 232 -19 l162 -6 -58 -90 c-127 -199 -384 -640 -407
-700 -7 -16 -3 -17 34 -11 37 5 50 0 40 -18 -2 -3 7 -15 20 -28 12 -14 20 -27
17 -30 -3 -3 1 -11 10 -18 26 -22 17 -38 -62 -116 -137 -134 -350 -262 -559
-334 l-89 -31 65 6 c190 18 448 106 612 210 54 34 59 40 88 118 110 286 131
332 115 254 -6 -26 -5 -30 6 -20 7 7 30 13 51 13 35 0 39 -3 45 -31 6 -30 7
-31 20 -13 13 17 14 17 8 -11 -41 -186 -160 -387 -337 -567 -56 -57 -33 -47
72 30 100 73 225 202 287 294 l50 75 -5 150 -5 150 65 12 c36 6 68 11 72 11 5
0 6 -62 4 -137 -6 -149 -34 -283 -82 -389 -14 -30 -23 -54 -21 -54 2 0 24 34
50 74 88 141 147 313 161 467 l6 76 57 18 c162 50 348 162 455 275 81 86 118
141 167 244 71 152 92 260 129 671 16 182 50 230 161 230 32 0 59 3 59 6 0 11
-46 47 -98 78 -48 28 -61 31 -136 31 -50 0 -114 -8 -160 -20 -83 -21 -222 -82
-289 -127 -74 -50 -74 -47 1 21 l72 68 0 131 c0 151 24 331 69 524 34 143 37
166 15 113 -13 -33 -14 -33 -9 -5 4 17 13 35 21 41 7 6 14 20 13 30 0 18 -1
18 -9 -1 -5 -11 -9 -14 -9 -7 -1 6 -13 12 -27 12 -14 0 -34 5 -45 11 -29 15
-57 2 -62 -29 -2 -15 -5 16 -6 70 -3 207 74 439 224 671 l66 102 -94 -96
c-108 -112 -189 -227 -251 -360 -44 -93 -86 -223 -86 -266 0 -51 -18 -15 -73
140 -31 89 -54 147 -51 128 4 -20 2 -31 -3 -28 -6 4 -8 -4 -6 -17 3 -13 -1
-27 -7 -31 -10 -6 -11 5 -7 46 3 30 8 63 12 74 6 19 6 19 -8 2 -39 -48 -88
-297 -90 -462 -2 -185 6 -224 60 -292 64 -80 71 -91 46 -70 -21 18 -21 18 -28
-4 -15 -47 -86 -99 -109 -80 -39 32 -159 319 -186 445 -7 30 -8 13 -5 -64 7
-154 46 -315 107 -452 28 -62 36 -71 107 -116 286 -185 316 -207 274 -200 -10
2 -17 -2 -16 -9 2 -8 -4 -10 -15 -6 -14 5 -15 3 -4 -8 14 -16 16 -33 2 -24 -5
3 -18 1 -27 -4 -17 -10 -17 -10 2 -11 19 0 18 -1 -3 -22 -14 -14 -25 -19 -30
-13 -4 6 -19 16 -33 23 -41 21 -163 131 -224 202 -185 213 -365 532 -519 918
-41 102 -73 169 -79 165 -6 -4 -8 0 -4 11 4 10 3 15 -3 11 -6 -3 -10 -13 -10
-21 0 -8 -5 -12 -10 -9 -6 4 -8 11 -5 16 4 5 -12 9 -34 9 -22 0 -43 -4 -46
-10 -3 -5 -17 -10 -30 -10 -13 0 -30 -7 -39 -15 -8 -8 -19 -15 -24 -15 -13 0
-22 -49 -11 -56 5 -3 9 -10 9 -15 0 -33 -133 169 -194 294 -128 265 -197 587
-209 977 l-2 75 -17 -90z m661 -1245 c0 -9 -4 -8 -9 5 -5 11 -9 27 -9 35 0 9
4 8 9 -5 5 -11 9 -27 9 -35z m-128 -125 c38 -40 82 -78 97 -86 33 -17 56 -38
50 -45 -11 -11 -172 128 -221 191 -41 52 -13 29 74 -60z m190 -162 c13 -17 13
-17 -6 -3 -11 8 -22 16 -24 17 -2 2 0 3 6 3 6 0 17 -8 24 -17z m976 -45 c-3
-8 -6 -5 -6 6 -1 11 2 17 5 13 3 -3 4 -12 1 -19z m13 -58 c0 -13 -1 -13 -10 0
-5 8 -10 22 -10 30 0 13 1 13 10 0 5 -8 10 -22 10 -30z m19 -80 c0 -23 -1 -23
-9 -5 -5 11 -9 31 -9 45 0 23 1 23 9 5 5 -11 9 -31 9 -45z m-17 -1220 l77 -27
-27 -25 c-165 -149 -439 -298 -667 -362 -33 -9 -69 -20 -80 -23 -22 -6 38 51
339 325 l199 181 41 -21 c22 -12 76 -33 118 -48z"/>
<path d="M1837 4428 c7 -8 11 -17 8 -19 -2 -3 5 -5 15 -6 26 -2 25 1 -7 23
-20 13 -25 13 -16 2z"/>
<path d="M2741 4345 c0 -5 8 -26 19 -45 11 -19 19 -30 19 -25 0 6 -8 26 -19
45 -11 19 -19 31 -19 25z"/>
<path d="M4002 3950 c0 -14 2 -19 5 -12 2 6 2 18 0 25 -3 6 -5 1 -5 -13z"/>
<path d="M2609 1313 c-13 -16 -12 -17 4 -4 9 7 17 15 17 17 0 8 -8 3 -21 -13z"/>
<path d="M2840 1294 c0 -8 5 -12 10 -9 6 3 10 10 10 16 0 5 -4 9 -10 9 -5 0
-10 -7 -10 -16z"/>
</g>
</svg>
